<?xml version="1.0" encoding="iso-8859-1"?>
<!-- Generator: Adobe Illustrator 19.0.0, SVG Export Plug-In . SVG Version: 6.00 Build 0)  -->
<svg version="1.1" id="Layer_1" xmlns="http://www.w3.org/2000/svg" xmlns:xlink="http://www.w3.org/1999/xlink" x="0px" y="0px"
	 viewBox="0 0 512 512" style="enable-background:new 0 0 512 512;" xml:space="preserve">
<path style="fill:#808285;" d="M256.176,512c-96.147,0-138.323-149.601-138.323-256c0-137.987,57.349-256,138.323-256
	c96.147,0,138.323,149.601,138.323,256C394.499,393.698,337.296,512,256.176,512z M256.176,39.385
	c-23.507,0-47.669,21.27-66.286,58.356c-21.056,41.943-32.652,98.148-32.652,158.259c0,169.658,96.239,295.673,165.225,158.259
	c21.055-41.943,32.651-98.148,32.651-158.259C355.114,132.18,305.615,39.385,256.176,39.385z"/>
<path style="fill:#6D6E71;" d="M256.176,0c-0.059,0-0.117,0.004-0.176,0.004V39.39c0.059,0,0.117-0.005,0.176-0.005
	c49.44,0,98.938,92.795,98.938,216.615c0,60.111-11.596,116.316-32.652,158.259c-20.804,41.442-44.087,58.915-66.462,58.466v39.269
	c0.059,0,0.117,0.004,0.176,0.004c81.12,0,138.323-118.302,138.323-256C394.499,149.601,352.323,0,256.176,0z"/>
<path style="fill:#28C3E4;" d="M34.473,384C-13.6,300.734,94.871,189.407,187.014,136.209C306.558,67.19,437.405,57.899,477.878,128
	c63.143,109.363-147.642,293.593-323.32,303.852C107.952,434.574,57.709,424.245,34.473,384z M206.706,170.316
	c-146.878,84.8-207.984,231.181-54.444,222.219c160.284-9.362,332.33-174.138,291.509-244.842
	C419.346,105.388,315.104,107.733,206.706,170.316z"/>
<g>
	<path style="fill:#28B6E4;" d="M477.878,128C445.131,71.28,353.218,66.544,256,103.358v42.37
		c89.193-37.658,167.092-33.854,187.771,1.964C475.732,203.05,377.205,316.069,256,367.02v41.989
		C400.221,354.523,529.068,216.661,477.878,128z"/>
	<path style="fill:#28B6E4;" d="M357.793,431.852C183.304,421.661-29.032,237.996,34.473,128
		c63.886-110.655,329.7-16.476,424.804,128.077c31.756,48.266,38.363,93.696,18.601,127.923
		C454.64,424.251,404.385,434.571,357.793,431.852z M68.582,147.692C27.61,218.657,200.195,383.195,360.091,392.535
		c86.587,5.061,113.994-42.303,66.286-114.81C337.976,143.365,109.28,77.202,68.582,147.692z"/>
</g>
<path style="fill:#289EE4;" d="M459.277,256.077C415.54,189.6,335.7,133.779,256,103.631v42.119
	c65.309,26.871,131.446,72.805,170.377,131.974c47.708,72.507,20.301,119.87-66.286,114.81
	c-34.875-2.038-70.355-11.46-104.09-25.681v41.946c33.858,12.85,68.513,21.11,101.793,23.054
	c46.592,2.719,96.847-7.601,120.085-47.852C497.64,349.773,491.033,304.343,459.277,256.077z"/>
<path style="fill:#28D2E4;" d="M256.176,309.792c-29.661,0-53.792-24.131-53.792-53.792s24.131-53.792,53.792-53.792
	s53.792,24.131,53.792,53.792S285.836,309.792,256.176,309.792z"/>
<path style="fill:#28C3E4;" d="M256.176,202.208c-0.059,0-0.117,0.004-0.176,0.004v107.573c0.059,0,0.117,0.004,0.176,0.004
	c29.661,0,53.792-24.131,53.792-53.792S285.836,202.208,256.176,202.208z"/>
<g>
</g>
<g>
</g>
<g>
</g>
<g>
</g>
<g>
</g>
<g>
</g>
<g>
</g>
<g>
</g>
<g>
</g>
<g>
</g>
<g>
</g>
<g>
</g>
<g>
</g>
<g>
</g>
<g>
</g>
</svg>
